<svg width="168" height="32" viewBox="0 0 168 32" fill="none" xmlns="http://www.w3.org/2000/svg">
<path d="M1.08621 24.4398C0.362069 22.9791 0 21.2613 0 19.2866C0 17.312 0.346983 15.5672 1.04095 14.0524C1.76509 12.5105 2.74569 11.185 3.98276 10.0759C6.60776 7.77661 9.89655 6.62696 13.8491 6.62696C17.9828 6.62696 21.3922 7.47906 24.0776 9.18325C27.0948 11.1309 28.6034 13.9171 28.6034 17.5419C28.6034 22.0323 27.4418 25.346 25.1185 27.483C22.8254 29.62 19.2349 30.6885 14.347 30.6885C7.55819 30.6885 3.13793 28.6056 1.08621 24.4398ZM3.71121 18.4751C3.71121 24.8591 7.30172 28.051 14.4828 28.051C18.0129 28.051 20.8793 27.1043 23.0819 25.2107C25.2845 23.3442 26.3858 20.8962 26.3858 17.8665C26.3858 15.0262 25.0733 12.8621 22.4483 11.3743C20.2155 10.0759 17.3944 9.4267 13.9849 9.4267C11.2694 9.4267 8.87069 10.3058 6.78879 12.0641C4.73707 13.8224 3.71121 15.9594 3.71121 18.4751Z" fill="#C62100"/>
<path d="M48.9246 22.3704C48.9246 19.1514 48.7284 16.7845 48.3362 15.2696C48.5776 14.8639 48.2155 14.661 47.25 14.661C46.2241 14.661 44.8965 14.8909 43.2672 15.3508C41.6379 15.8106 40.3103 16.2705 39.2845 16.7304C36.8405 17.7853 35.4828 18.8133 35.2112 19.8141V30.8508H32.1789C31.7866 29.9311 31.5905 27.3477 31.5905 23.1008C31.5905 19.3137 31.6659 16.5275 31.8168 14.7421C31.9978 12.9568 32.1336 11.9424 32.2241 11.699C33.0086 11.2391 33.6422 11.0092 34.125 11.0092C34.8793 11.0092 35.2565 11.8072 35.2565 13.4031C35.2565 14.0253 35.2112 14.6339 35.1207 15.2291C35.0603 15.7971 35.0302 16.1894 35.0302 16.4058C39.9181 13.1867 43.7047 11.5772 46.3901 11.5772C49.4375 11.5772 51.1724 13.7818 51.5948 18.1911C51.7759 19.733 51.8664 21.87 51.8664 24.6021L51.8211 27.8076C51.8211 28.9978 51.8513 30.1475 51.9116 31.2565C51.6099 31.4188 51.3685 31.5 51.1875 31.5C51.097 31.4729 50.9009 31.4324 50.5991 31.3783C50.2974 31.3242 49.9052 31.2836 49.4224 31.2565C49.1207 30.1745 48.9547 29.079 48.9246 27.9699C48.8944 26.8338 48.8793 25.7923 48.8793 24.8455L48.9246 22.3704Z" fill="#C62100"/>
<path d="M87.7565 24.5209C89.2651 20.1387 91.0151 12.1318 93.0065 0.5C94.9073 0.5 95.903 1.02749 95.9935 2.08246C96.0237 2.40707 96.0388 2.637 96.0388 2.77225C96.069 2.9075 96.0237 3.38089 95.903 4.19241C95.7823 4.97688 95.6013 6.08595 95.3599 7.51963C95.1487 8.95332 94.8772 10.6169 94.5453 12.5105C94.2134 14.404 93.8362 16.3787 93.4138 18.4346C92.3879 23.2766 91.3319 27.3613 90.2457 30.6885C89.1595 31.3647 88.3147 31.4729 87.7112 31.0131C87.4397 30.7696 87.1983 30.445 86.9871 30.0393C86.7759 29.6065 86.5345 29.1195 86.2629 28.5785C85.8707 28.1187 85.1466 26.9014 84.0905 24.9267C83.0345 22.952 82.1746 21.3831 81.5108 20.2199C80.8772 19.0567 80.2586 17.9747 79.6552 16.9738C78.2672 14.7286 77.1056 13.4167 76.1703 13.038C75.0841 14.5528 73.153 18.7051 70.3772 25.4948C69.8944 26.685 69.4569 27.7941 69.0647 28.822C68.6724 29.8229 68.3405 30.6344 68.069 31.2565L65.2629 31.1348L53.9483 7.68194C53.8879 7.54668 53.8578 7.41143 53.8578 7.27618C53.8578 7.14092 53.903 7.00567 53.9935 6.87042C54.1142 6.73517 54.3103 6.61344 54.5819 6.50524C55.0948 6.34293 55.6078 6.26178 56.1207 6.26178C56.6336 6.26178 56.9957 6.35646 57.2069 6.54581C57.4483 6.70812 57.6293 6.92452 57.75 7.19503C57.9009 7.46553 58.0215 7.76309 58.1121 8.0877C58.2026 8.4123 58.3685 8.83159 58.6099 9.34555C58.8815 9.85951 59.2586 10.6169 59.7414 11.6178C60.2543 12.6187 60.7974 13.6736 61.3707 14.7827C61.944 15.8918 62.5172 17.0009 63.0905 18.1099C63.6638 19.192 64.2069 20.1928 64.7198 21.1126C65.806 23.1414 66.4849 24.2775 66.7565 24.5209C70.2565 16.7845 72.4138 12.1994 73.2284 10.7657C74.0431 9.30497 74.556 8.4123 74.7672 8.0877C75.0991 7.62784 75.3556 7.39791 75.5366 7.39791C76.8341 7.39791 79.0216 9.99476 82.0991 15.1885C82.944 16.5681 83.7284 17.8935 84.4526 19.1649C86.2328 22.2487 87.3341 24.034 87.7565 24.5209Z" fill="#C62100"/>
<path d="M115.817 24.5209C113.554 27.7129 110.537 29.6876 106.765 30.445C105.89 30.6073 105.091 30.6885 104.366 30.6885C103.672 30.6885 103.084 30.6885 102.601 30.6885C102.149 30.6614 101.636 30.5938 101.062 30.4856C100.489 30.3774 99.9612 30.2016 99.4784 29.9581C98.3621 29.3901 97.8039 28.5921 97.8039 27.5641C97.6832 27.0772 97.6228 26.5362 97.6228 25.9411C97.6228 25.3189 97.7737 24.5074 98.0754 23.5065C98.3772 22.5057 98.9203 21.4236 99.7047 20.2605C100.519 19.0973 101.5 18.0288 102.647 17.055C105.03 14.9991 107.61 13.6736 110.386 13.0785C111.2 12.9162 111.94 12.8351 112.603 12.8351C113.297 12.8351 113.916 12.8757 114.459 12.9568C116.209 12.9568 117.386 14.0253 117.989 16.1623C118.381 17.5148 118.608 19.4084 118.668 21.8429C118.759 24.2504 118.834 26.1169 118.894 27.4424C118.985 28.7408 119.181 29.9311 119.483 31.0131H116.812C116.692 30.2827 116.601 29.6335 116.541 29.0654C116.481 28.4974 116.42 27.9699 116.36 27.483C116.209 26.3469 116.028 25.3595 115.817 24.5209ZM115.636 18.2317C115.636 16.6627 114.776 15.8783 113.056 15.8783C112.845 15.8512 112.634 15.8377 112.422 15.8377C110.22 15.8377 107.897 16.7845 105.453 18.678C104.306 19.5436 103.325 20.5175 102.511 21.5995C101.304 23.1414 100.7 24.5209 100.7 25.7382C100.7 27.3342 101.726 28.281 103.778 28.5785C106.494 28.5244 109.088 27.4154 111.562 25.2513C112.619 24.3045 113.494 23.2766 114.188 22.1675C115.153 20.6798 115.636 19.3678 115.636 18.2317Z" fill="#C62100"/>
<path d="M122.017 15.5537C121.957 15.4184 121.927 15.2696 121.927 15.1073C121.927 14.918 122.002 14.6745 122.153 14.377C122.304 14.0794 122.515 13.8224 122.787 13.606C123.088 13.3896 123.405 13.2949 123.737 13.322C124.099 13.322 124.386 13.5113 124.597 13.8901L132.2 26.5497C132.442 26.2251 132.819 25.63 133.332 24.7644C133.875 23.8717 134.478 22.8709 135.142 21.7618C135.836 20.6527 136.545 19.5031 137.269 18.3128C138.024 17.0955 138.718 15.9865 139.351 14.9856C140.8 12.6863 141.659 11.5366 141.931 11.5366C142.565 11.5366 143.017 11.7531 143.289 12.1859C143.591 12.5916 143.741 12.9027 143.741 13.1191C143.741 13.3355 143.741 13.4843 143.741 13.5654C142.052 16.8656 140.483 19.9088 139.034 22.695C137.616 25.4812 136.666 27.2936 136.183 28.1322C135.731 28.9437 135.323 29.5929 134.961 30.0798C134.328 30.9184 133.709 31.3377 133.106 31.3377C132.502 31.3377 131.808 30.9184 131.024 30.0798C130.239 29.2142 129.349 28.0646 128.353 26.6309C126.603 24.034 124.491 20.3416 122.017 15.5537Z" fill="#C62100"/>
<path d="M154.875 28.4162C157.53 28.4162 161.528 27.3342 166.869 25.1702C167.2 25.1702 167.472 25.2784 167.683 25.4948C167.894 25.6841 168 25.914 168 26.1846C166.793 28.024 164.485 29.4577 161.075 30.4856C157.666 31.5135 154.483 31.6894 151.526 31.0131C148.177 30.2286 146.14 28.538 145.416 25.9411C145.356 25.4271 145.325 24.7373 145.325 23.8717C145.325 23.0061 145.567 21.87 146.05 20.4634C146.562 19.0297 147.422 17.6771 148.629 16.4058C149.836 15.1344 151.254 14.1335 152.884 13.4031C154.513 12.6728 156.248 12.3076 158.088 12.3076C159.838 12.3076 161.8 12.8486 163.972 13.9306C164.998 14.4446 165.812 15.0262 166.416 15.6754C167.019 16.3246 167.321 16.9873 167.321 17.6636C167.321 17.853 167.306 18.0423 167.276 18.2317C167.216 19.8818 166.325 20.9232 164.606 21.356C163.851 21.5454 162.976 21.6401 161.981 21.6401L155.463 21.3966C153.291 21.3966 151.631 21.8159 150.485 22.6544C149.821 23.1143 149.353 23.8041 149.082 24.7238C149.836 27.1854 151.767 28.4162 154.875 28.4162ZM162.931 15.8783C162.267 15.4455 161.573 15.1344 160.849 14.945C160.125 14.7557 159.522 14.661 159.039 14.661C158.556 14.661 157.772 14.8098 156.685 15.1073C155.599 15.3778 154.634 15.6889 153.789 16.0406C151.707 16.9062 150.666 17.8124 150.666 18.7592C153.08 18.9485 154.89 19.0432 156.097 19.0432C159.446 19.0432 161.709 18.7862 162.886 18.2723C163.61 18.0017 163.972 17.6636 163.972 17.2579C163.972 16.7709 163.625 16.3111 162.931 15.8783Z" fill="#C62100"/>
</svg>
